<svg width="50" height="121" viewBox="0 0 50 121" fill="none" xmlns="http://www.w3.org/2000/svg">
<mask id="mask0" mask-type="alpha" maskUnits="userSpaceOnUse" x="0" y="0" width="50" height="121">
<path d="M23.6093 11.8312H22.2204V23.6291H23.6093V11.8312Z" fill="#AC8A63"/>
<path d="M23.6093 24.3241H22.2204V35.4292H23.6093V24.3241Z" fill="#AC8A63"/>
<path d="M23.6093 36.1221H22.2204V47.92H23.6093V36.1221Z" fill="#AC8A63"/>
<path d="M23.6093 51.3918H22.2204V81.9303H23.6093V51.3918Z" fill="#AC8A63"/>
<path d="M23.6093 85.3999H22.2204V118.02H23.6093V85.3999Z" fill="#AC8A63"/>
<path d="M21.527 24.3241H20.1381V35.4292H21.527V24.3241Z" fill="#AC8A63"/>
<path d="M21.527 36.1221H20.1381V47.92H21.527V36.1221Z" fill="#AC8A63"/>
<path d="M21.527 51.3918H20.1381V81.9303H21.527V51.3918Z" fill="#AC8A63"/>
<path d="M21.527 85.3999H20.1381V118.02H21.527V85.3999Z" fill="#AC8A63"/>
<path d="M19.4447 36.1221H18.0557V47.92H19.4447V36.1221Z" fill="#AC8A63"/>
<path d="M34.0278 48.6161H15.9733V50.6979H34.0278V48.6161Z" fill="#AC8A63"/>
<path d="M34.0278 82.6243H15.9733V84.7061H34.0278V82.6243Z" fill="#AC8A63"/>
<path d="M34.0278 118.714H15.9733V120.796H34.0278V118.714Z" fill="#AC8A63"/>
<path d="M19.4447 51.3918H18.0557V81.9303H19.4447V51.3918Z" fill="#AC8A63"/>
<path d="M19.4447 85.3999H18.0557V118.02H19.4447V85.3999Z" fill="#AC8A63"/>
<path d="M25.695 11.8312H24.3061V23.6291H25.695V11.8312Z" fill="#AC8A63"/>
<path d="M25.695 24.3241H24.3061V35.4292H25.695V24.3241Z" fill="#AC8A63"/>
<path d="M25.695 36.1221H24.3061V47.92H25.695V36.1221Z" fill="#AC8A63"/>
<path d="M25.695 51.3918H24.3061V81.9303H25.695V51.3918Z" fill="#AC8A63"/>
<path d="M25.695 85.3999H24.3061V118.02H25.695V85.3999Z" fill="#AC8A63"/>
<path d="M25.695 0.0321045H24.3061V11.1372H25.695V0.0321045Z" fill="#AC8A63"/>
<path d="M27.7774 11.8312H26.3884V23.6291H27.7774V11.8312Z" fill="#AC8A63"/>
<path d="M27.7774 24.3241H26.3884V35.4292H27.7774V24.3241Z" fill="#AC8A63"/>
<path d="M27.7774 36.1221H26.3884V47.92H27.7774V36.1221Z" fill="#AC8A63"/>
<path d="M27.7774 51.3918H26.3884V81.9303H27.7774V51.3918Z" fill="#AC8A63"/>
<path d="M27.7774 85.3999H26.3884V118.02H27.7774V85.3999Z" fill="#AC8A63"/>
<path d="M29.8598 24.3241H28.4708V35.4292H29.8598V24.3241Z" fill="#AC8A63"/>
<path d="M29.8598 36.1221H28.4708V47.92H29.8598V36.1221Z" fill="#AC8A63"/>
<path d="M29.8598 51.3918H28.4708V81.9303H29.8598V51.3918Z" fill="#AC8A63"/>
<path d="M29.9337 85.3999H28.5447V118.02H29.9337V85.3999Z" fill="#AC8A63"/>
<path d="M31.9422 36.1221H30.5532V47.92H31.9422V36.1221Z" fill="#AC8A63"/>
<path d="M31.9422 51.3918H30.5532V81.9303H31.9422V51.3918Z" fill="#AC8A63"/>
<path d="M31.9422 85.3999H30.5532V118.02H31.9422V85.3999Z" fill="#AC8A63"/>
<path d="M34.0279 51.3918H32.6389V81.9303H34.0279V51.3918Z" fill="#AC8A63"/>
<path d="M34.0279 85.3999H32.6389V118.02H34.0279V85.3999Z" fill="#AC8A63"/>
<path d="M36.8047 72.9081H35.4158V120.797H36.8047V72.9081Z" fill="#AC8A63"/>
<path d="M14.5833 72.9081H13.1942V120.797H14.5833V72.9081Z" fill="#AC8A63"/>
<path d="M38.8871 87.4828H37.4981V120.797H38.8871V87.4828Z" fill="#AC8A63"/>
<path d="M12.5009 87.4828H11.1119V120.797H12.5009V87.4828Z" fill="#AC8A63"/>
<path d="M43.7462 110.386H39.5804V120.796H43.7462V110.386Z" fill="#AC8A63"/>
<path d="M10.4185 110.386H6.25266V120.796H10.4185V110.386Z" fill="#AC8A63"/>
<path d="M50 116.632H44.4441V120.797H50V116.632Z" fill="#AC8A63"/>
<path d="M5.55591 116.632H0V120.797H5.55591V116.632Z" fill="#AC8A63"/>
<path d="M17.3622 48.6161H15.9733V120.797H17.3622V48.6161Z" fill="#AC8A63"/>
</mask>
<g mask="url(#mask0)">
<rect width="50" height="121" fill="url(#paint0_linear)"/>
</g>
<defs>
<linearGradient id="paint0_linear" x1="-27.3698" y1="215.662" x2="45.7885" y2="223.385" gradientUnits="userSpaceOnUse">
<stop stop-color="#D39A47"/>
<stop offset="1" stop-color="#F3E376"/>
</linearGradient>
</defs>
</svg>
