<svg width="747" height="211" viewBox="0 0 747 211" fill="none" xmlns="http://www.w3.org/2000/svg">
<path d="M21.7521 168.399C16.2345 166.795 6.89702 167.397 0 171.406V211H747V0C736.92 8.52019 732.145 3.00713 718.351 5.51242C706.783 7.61343 689.171 25.059 681.744 29.5697C674.316 34.0804 662.644 13.5317 651.503 19.5459C640.361 25.5602 629.22 47.1114 619.67 52.1232C610.121 57.1351 601.569 32.6978 589.96 35.584C579.88 38.0903 562.903 65.6558 553.883 68.6624C544.864 71.6691 535.315 52.1237 525.765 50.119C516.215 48.1142 502.421 56.6342 494.994 60.6439C486.193 65.3947 476.955 65.6558 461.039 65.6558C449.367 65.6558 439.817 86.2045 427.085 88.2092C414.352 90.214 408.516 80.6913 396.844 80.1901C383.05 79.5977 387.994 109.76 367.134 109.76C354.931 109.76 344.32 93.7219 331.587 95.2255C318.854 96.729 306.652 120.786 297.102 118.781C287.553 116.777 274.203 108.244 268.984 110.261C257.312 114.772 248.823 132.815 237.151 134.819C220.705 137.644 215.93 126.299 209.033 125.297C191.204 122.705 185.158 155.368 174.548 146.848C163.937 138.327 154.387 143.339 144.837 140.333C126.69 134.619 123.085 159.378 111.413 160.38C99.7415 161.382 90.7 154.498 80.642 153.865C64.7259 152.862 58.8899 173.411 46.6875 175.416C34.4851 177.421 28.6491 170.404 21.7521 168.399Z" fill="url(#paint0_linear)"/>
<defs>
<linearGradient id="paint0_linear" x1="496" y1="211" x2="485.764" y2="-254.72" gradientUnits="userSpaceOnUse">
<stop stop-color="#D39A47" stop-opacity="0"/>
<stop offset="0.966614" stop-color="#F3E376" stop-opacity="0.54"/>
</linearGradient>
</defs>
</svg>
