<svg width="749" height="213" viewBox="0 0 749 213" fill="none" xmlns="http://www.w3.org/2000/svg">
<path d="M2 211.5C1.72386 211.5 1.5 211.724 1.5 212C1.5 212.276 1.72386 212.5 2 212.5V211.5ZM748 212.5C748.276 212.5 748.5 212.276 748.5 212C748.5 211.724 748.276 211.5 748 211.5V212.5ZM2 212.5H748V211.5H2V212.5Z" fill="#6F6F6F"/>
<path d="M2 161.5C1.72386 161.5 1.5 161.724 1.5 162C1.5 162.276 1.72386 162.5 2 162.5V161.5ZM748 162.5C748.276 162.5 748.5 162.276 748.5 162C748.5 161.724 748.276 161.5 748 161.5V162.5ZM2 162.5H748V161.5H2V162.5Z" fill="#6F6F6F" fill-opacity="0.4"/>
<path d="M2 111.5C1.72386 111.5 1.5 111.724 1.5 112C1.5 112.276 1.72386 112.5 2 112.5V111.5ZM748 112.5C748.276 112.5 748.5 112.276 748.5 112C748.5 111.724 748.276 111.5 748 111.5V112.5ZM2 112.5H748V111.5H2V112.5Z" fill="#6F6F6F" fill-opacity="0.4"/>
<path d="M2 61.5C1.72386 61.5 1.5 61.7239 1.5 62C1.5 62.2761 1.72386 62.5 2 62.5V61.5ZM748 62.5C748.276 62.5 748.5 62.2761 748.5 62C748.5 61.7239 748.276 61.5 748 61.5V62.5ZM2 62.5H748V61.5H2V62.5Z" fill="#6F6F6F" fill-opacity="0.4"/>
<path d="M22.7521 169.617L22.6124 170.097L22.7521 169.617ZM81.642 155.064L81.6106 155.563L81.642 155.064ZM145.837 141.514L145.687 141.991L145.837 141.514ZM210.033 126.459L209.961 126.954L210.033 126.459ZM238.151 135.994L238.236 136.487L238.151 135.994ZM269.984 111.404L269.803 110.938L269.984 111.404ZM397.844 81.294L397.865 80.7944L397.844 81.294ZM495.994 61.7225L495.756 61.2826L495.994 61.7225ZM590.96 36.6302L591.081 37.1154L590.96 36.6302ZM719.351 6.51957L719.261 6.02764L719.351 6.51957ZM748.323 1.38166C748.534 1.20327 748.56 0.887774 748.382 0.67699C748.203 0.466205 747.888 0.439946 747.677 0.61834L748.323 1.38166ZM1.25153 173.06C8.0263 169.117 17.2219 168.528 22.6124 170.097L22.8919 169.137C17.2472 167.494 7.76773 168.11 0.748473 172.196L1.25153 173.06ZM22.6124 170.097C24.284 170.584 25.9036 171.378 27.6069 172.285C29.298 173.186 31.0809 174.204 33.0226 175.091C36.934 176.877 41.5452 178.16 47.7687 177.137L47.6063 176.15C41.6274 177.133 37.2194 175.908 33.438 174.181C31.5333 173.311 29.8013 172.321 28.0771 171.403C26.365 170.491 24.6688 169.654 22.8919 169.137L22.6124 170.097ZM47.7687 177.137C50.9507 176.613 53.6877 174.884 56.2316 172.66C58.7675 170.443 61.1694 167.68 63.6357 165.068C68.6106 159.797 73.9039 155.077 81.6106 155.563L81.6735 154.565C73.464 154.047 67.8812 159.113 62.9085 164.381C60.401 167.038 58.0612 169.732 55.5735 171.907C53.0939 174.074 50.5255 175.67 47.6063 176.15L47.7687 177.137ZM81.6106 155.563C86.5557 155.875 91.2483 157.724 96.2628 159.414C101.25 161.095 106.511 162.597 112.456 162.086L112.371 161.09C106.644 161.582 101.549 160.14 96.5821 158.466C91.6434 156.802 86.7863 154.887 81.6735 154.565L81.6106 155.563ZM112.456 162.086C115.557 161.819 118.078 159.974 120.37 157.568C122.645 155.179 124.808 152.104 127.083 149.347C129.387 146.555 131.849 144.03 134.824 142.543C137.775 141.068 141.268 140.598 145.687 141.991L145.988 141.038C141.333 139.57 137.57 140.053 134.377 141.649C131.207 143.233 128.636 145.895 126.311 148.711C123.958 151.563 121.896 154.516 119.646 156.879C117.412 159.224 115.106 160.855 112.371 161.09L112.456 162.086ZM145.687 141.991C148.135 142.763 150.573 143.017 152.998 143.104C154.21 143.147 155.425 143.149 156.636 143.152C157.849 143.155 159.059 143.159 160.275 143.206C165.122 143.391 170.043 144.254 175.234 148.428L175.861 147.648C170.442 143.291 165.282 142.397 160.314 142.206C159.077 142.159 157.849 142.155 156.638 142.152C155.424 142.149 154.226 142.147 153.034 142.104C150.652 142.019 148.314 141.771 145.988 141.038L145.687 141.991ZM175.234 148.428C176.634 149.553 178.008 150.035 179.374 149.953C180.729 149.872 182 149.242 183.213 148.295C185.617 146.417 187.973 143.137 190.484 139.774C193.021 136.376 195.744 132.85 198.926 130.328C202.093 127.817 205.679 126.331 209.961 126.954L210.105 125.964C205.472 125.29 201.617 126.919 198.305 129.544C195.007 132.158 192.212 135.788 189.683 139.176C187.128 142.598 184.868 145.733 182.597 147.507C181.473 148.385 180.392 148.89 179.315 148.955C178.25 149.018 177.114 148.656 175.861 147.648L175.234 148.428ZM209.961 126.954C211.564 127.187 213.076 128.028 214.738 129.181C216.363 130.308 218.185 131.779 220.243 133.086C224.436 135.75 229.866 137.926 238.236 136.487L238.067 135.501C229.99 136.89 224.809 134.801 220.779 132.242C218.725 130.937 217.033 129.556 215.308 128.36C213.621 127.189 211.95 126.233 210.105 125.964L209.961 126.954ZM238.236 136.487C241.267 135.966 244.062 134.407 246.716 132.334C249.368 130.262 251.912 127.649 254.431 124.984C256.959 122.309 259.461 119.584 262.062 117.241C264.661 114.899 267.328 112.968 270.164 111.87L269.803 110.938C266.804 112.098 264.032 114.12 261.392 116.498C258.754 118.875 256.216 121.639 253.704 124.297C251.183 126.964 248.686 129.526 246.1 131.546C243.514 133.566 240.871 135.019 238.067 135.501L238.236 136.487ZM270.164 111.87C271.313 111.426 272.992 111.542 275.112 112.087C277.21 112.626 279.639 113.555 282.229 114.622C287.375 116.741 293.165 119.408 297.999 120.425L298.205 119.446C293.489 118.455 287.831 115.847 282.61 113.697C280.016 112.629 277.532 111.676 275.361 111.118C273.211 110.566 271.264 110.372 269.803 110.938L270.164 111.87ZM297.999 120.425C300.61 120.973 303.319 119.726 306.027 117.709C308.751 115.682 311.598 112.781 314.508 109.809C317.432 106.824 320.426 103.759 323.48 101.344C326.539 98.925 329.6 97.2055 332.646 96.8454L332.529 95.8523C329.208 96.245 325.969 98.1011 322.86 100.559C319.747 103.022 316.706 106.136 313.794 109.11C310.868 112.097 308.078 114.936 305.43 116.907C302.767 118.89 300.369 119.901 298.205 119.446L297.999 120.425ZM332.646 96.8454C338.801 96.1176 344.483 99.6312 350.283 103.478C353.156 105.383 356.054 107.364 358.995 108.862C361.941 110.362 364.973 111.402 368.134 111.402V110.402C365.193 110.402 362.323 109.435 359.449 107.971C356.571 106.505 353.732 104.565 350.836 102.644C345.096 98.8376 339.107 95.0746 332.529 95.8523L332.646 96.8454ZM368.134 111.402C373.49 111.402 377.222 109.455 379.999 106.537C382.754 103.642 384.551 99.808 386.1 96.0669C387.665 92.288 388.966 88.6403 390.734 85.9443C392.479 83.2838 394.611 81.6554 397.822 81.7935L397.865 80.7944C394.179 80.636 391.757 82.5603 389.898 85.3958C388.061 88.1957 386.708 91.9871 385.177 95.6844C383.63 99.4195 381.89 103.099 379.274 105.848C376.68 108.574 373.207 110.402 368.134 110.402V111.402ZM397.822 81.7935C403.53 82.0389 407.801 84.4856 412.347 86.6992C416.882 88.9071 421.64 90.8456 428.162 89.8174L428.007 88.8296C421.796 89.8088 417.269 87.9834 412.785 85.8001C408.313 83.6227 403.829 81.0508 397.865 80.7944L397.822 81.7935ZM428.162 89.8174C431.464 89.2969 434.527 87.5789 437.426 85.3441C440.324 83.1098 443.1 80.3249 445.812 77.6344C448.536 74.9319 451.194 72.3266 453.891 70.3935C456.588 68.461 459.271 67.2409 462.039 67.2409V66.2409C458.971 66.2409 456.083 67.5926 453.309 69.5807C450.535 71.5683 447.821 74.2322 445.108 76.9245C442.382 79.6287 439.653 82.364 436.815 84.5521C433.977 86.7398 431.072 88.3464 428.007 88.8296L428.162 89.8174ZM462.039 67.2409C477.93 67.2409 487.301 66.9896 496.231 62.1623L495.756 61.2826C487.086 65.9692 477.98 66.2409 462.039 66.2409V67.2409ZM496.231 62.1623C499.968 60.1426 505.237 57.0263 510.78 54.6545C516.339 52.2761 522.049 50.7036 526.662 51.6732L526.868 50.6946C521.931 49.6568 515.97 51.3462 510.387 53.7352C504.788 56.1308 499.447 59.2875 495.756 61.2826L496.231 62.1623ZM526.662 51.6732C528.919 52.1477 531.226 53.6754 533.591 55.7325C535.951 57.786 538.298 60.302 540.667 62.7007C543.02 65.0828 545.395 67.3493 547.763 68.8268C550.135 70.3062 552.584 71.046 555.042 70.2257L554.725 69.2771C552.673 69.9621 550.547 69.3845 548.293 67.9784C546.035 66.5704 543.735 64.3832 541.379 61.998C539.039 59.6295 536.645 57.0646 534.247 54.9781C531.853 52.8952 529.385 51.2238 526.868 50.6946L526.662 51.6732ZM555.042 70.2257C556.247 69.8234 557.551 69.0241 558.917 67.9615C560.287 66.8953 561.747 65.5437 563.263 64.0107C566.295 60.9466 569.59 57.1207 572.9 53.3318C576.218 49.5345 579.552 45.7724 582.683 42.8035C585.833 39.8165 588.7 37.708 591.081 37.1154L590.839 36.145C588.18 36.807 585.146 39.0898 581.995 42.0779C578.825 45.084 575.461 48.8809 572.147 52.6739C568.826 56.4753 565.556 60.2711 562.552 63.3074C561.052 64.8246 559.626 66.1428 558.303 67.1721C556.975 68.205 555.775 68.9267 554.725 69.2771L555.042 70.2257ZM591.081 37.1154C593.785 36.4422 596.346 37.3461 598.87 39.1138C601.402 40.887 603.821 43.4753 606.222 46.0496C608.6 48.5997 610.97 51.1479 613.356 52.7306C615.761 54.3261 618.289 55.0072 620.903 53.6334L620.438 52.7482C618.277 53.8836 616.155 53.3879 613.908 51.8973C611.642 50.3937 609.358 47.9462 606.953 45.3676C604.571 42.8132 602.079 40.1398 599.444 38.2947C596.801 36.4441 593.94 35.3731 590.839 36.145L591.081 37.1154ZM620.903 53.6334C623.371 52.3362 625.907 49.9917 628.477 47.1597C631.052 44.3217 633.7 40.9502 636.382 37.568C639.069 34.1788 641.792 30.7757 644.537 27.8446C647.284 24.9101 650.026 22.4784 652.741 21.0111L652.265 20.1314C649.409 21.6751 646.58 24.1991 643.807 27.1612C641.03 30.1267 638.282 33.5612 635.598 36.9467C632.908 40.3394 630.284 43.6801 627.736 46.4877C625.183 49.3014 622.744 51.5362 620.438 52.7482L620.903 53.6334ZM652.741 21.0111C655.366 19.5921 658.028 19.7261 660.713 20.7039C663.416 21.6885 666.1 23.5147 668.721 25.4288C671.315 27.3233 673.864 29.3195 676.221 30.5421C678.578 31.7643 680.914 32.3054 683.003 31.0352L682.484 30.1808C680.859 31.1688 678.952 30.8317 676.682 29.6545C674.413 28.4777 671.956 26.5533 669.311 24.6213C666.692 22.7089 663.906 20.8027 661.055 19.7643C658.185 18.719 655.21 18.5394 652.265 20.1314L652.741 21.0111ZM683.003 31.0352C684.893 29.8862 687.412 27.926 690.283 25.6247C693.165 23.3145 696.416 20.6487 699.799 18.0558C703.181 15.4636 706.681 12.9555 710.049 10.9663C713.425 8.97327 716.634 7.52177 719.44 7.0115L719.261 6.02764C716.283 6.56923 712.953 8.09015 709.541 10.1052C706.122 12.1241 702.586 14.6598 699.19 17.2621C695.796 19.8638 692.528 22.5434 689.657 24.8445C686.776 27.1545 684.308 29.0715 682.484 30.1808L683.003 31.0352ZM719.44 7.0115C726.279 5.76788 730.813 6.51821 735.068 6.51829C737.189 6.51833 739.222 6.32733 741.375 5.58119C743.526 4.83533 745.767 3.54481 748.323 1.38166L747.677 0.61834C745.193 2.7208 743.057 3.93947 741.047 4.63637C739.038 5.333 737.125 5.51833 735.068 5.51829C730.967 5.51821 726.217 4.76271 719.261 6.02764L719.44 7.0115Z" fill="url(#paint0_linear)"/>
<path d="M22.7521 169.399C17.2345 167.795 7.89702 168.397 1 172.406V212H748V1C737.92 9.52019 733.145 4.00713 719.351 6.51242C707.783 8.61343 690.171 26.059 682.744 30.5697C675.316 35.0804 663.644 14.5317 652.503 20.5459C641.361 26.5602 630.22 48.1114 620.67 53.1232C611.121 58.1351 602.569 33.6978 590.96 36.584C580.88 39.0903 563.903 66.6558 554.883 69.6624C545.864 72.6691 536.315 53.1237 526.765 51.119C517.215 49.1142 503.421 57.6342 495.994 61.6439C487.193 66.3947 477.955 66.6558 462.039 66.6558C450.367 66.6558 440.817 87.2045 428.085 89.2092C415.352 91.214 409.516 81.6913 397.844 81.1901C384.05 80.5977 388.994 110.76 368.134 110.76C355.931 110.76 345.32 94.7219 332.587 96.2255C319.854 97.729 307.652 121.786 298.102 119.781C288.553 117.777 275.203 109.244 269.984 111.261C258.312 115.772 249.823 133.815 238.151 135.819C221.705 138.644 216.93 127.299 210.033 126.297C192.204 123.705 186.158 156.368 175.548 147.848C164.937 139.327 155.387 144.339 145.837 141.333C127.69 135.619 124.085 160.378 112.413 161.38C100.741 162.382 91.7 155.498 81.642 154.865C65.7259 153.862 59.8899 174.411 47.6875 176.416C35.4851 178.421 29.6491 171.404 22.7521 169.399Z" fill="url(#paint1_linear)"/>
<defs>
<linearGradient id="paint0_linear" x1="-407.905" y1="314.691" x2="33.3457" y2="767.574" gradientUnits="userSpaceOnUse">
<stop stop-color="#D39A47" stop-opacity="0"/>
<stop offset="1" stop-color="#F3E376"/>
</linearGradient>
<linearGradient id="paint1_linear" x1="497" y1="212" x2="486.764" y2="-253.72" gradientUnits="userSpaceOnUse">
<stop stop-color="#D39A47" stop-opacity="0"/>
<stop offset="0.966614" stop-color="#F3E376" stop-opacity="0.54"/>
</linearGradient>
</defs>
</svg>
