<svg width="253" height="255" viewBox="0 0 253 255" fill="none" xmlns="http://www.w3.org/2000/svg">
<circle cx="126.5" cy="127.5" r="86.5" fill="url(#paint0_linear)"/>
<circle cx="126.5" cy="127.5" r="86.5" fill="url(#paint1_linear)"/>
<circle cx="126.5" cy="127.5" r="86.5" fill="url(#paint2_linear)"/>
<circle cx="126.5" cy="127.5" r="104" stroke="url(#paint3_linear)" stroke-width="5"/>
<circle cx="126.5" cy="127.5" r="104" stroke="url(#paint4_linear)" stroke-width="5"/>
<circle cx="126.5" cy="127.5" r="104" stroke="url(#paint5_linear)" stroke-width="5"/>
<path d="M180.5 38.5002C158.333 25.074 133.5 21.0001 108.5 24.9995C82.9909 29.5758 61.118 42.7058 45 63.0002C28.882 83.2947 21.5 107 22.5001 132.5C23.8184 158.383 34.4034 181.948 52.5 200.5" stroke="url(#paint6_linear)" stroke-width="5" stroke-linecap="round"/>
<circle cx="126.5" cy="127.5" r="124" stroke="url(#paint7_linear)" stroke-width="5"/>
<circle cx="126.5" cy="127.5" r="124" stroke="url(#paint8_linear)" stroke-width="5"/>
<circle cx="126.5" cy="127.5" r="124" stroke="url(#paint9_linear)" stroke-width="5"/>
<path d="M80 242.5C98 249.6 116.177 252.597 135.5 251.2C154.823 249.803 172.281 244.338 189 234.55C205.719 224.763 219.222 212.166 229.9 196C240.578 179.835 247.334 163.539 249.5 143.5C251.5 125 250.5 106.5 243.8 87.5002C237.501 69.1793 227.743 53.1553 214 39.5002C200.257 25.845 184.361 16.182 166 10.0005C147.639 3.81891 129.203 1.93641 110 4.4996" stroke="url(#paint10_linear)" stroke-width="5" stroke-linecap="round"/>
<defs>
<linearGradient id="paint0_linear" x1="130.265" y1="256.902" x2="261.188" y2="77.4042" gradientUnits="userSpaceOnUse">
<stop stop-color="#141414"/>
<stop offset="1" stop-color="#222222"/>
</linearGradient>
<linearGradient id="paint1_linear" x1="30.5865" y1="102.223" x2="40.733" y2="102.175" gradientUnits="userSpaceOnUse">
<stop stop-color="#E9CB67"/>
<stop offset="1" stop-color="#E8CA66" stop-opacity="0"/>
</linearGradient>
<linearGradient id="paint2_linear" x1="219.903" y1="70.4517" x2="212.058" y2="70.4989" gradientUnits="userSpaceOnUse">
<stop stop-color="#E9CB67"/>
<stop offset="0.619934" stop-color="#E9CB67" stop-opacity="0.399491"/>
<stop offset="0.973958" stop-color="#E9CB67" stop-opacity="0"/>
</linearGradient>
<linearGradient id="paint3_linear" x1="131.136" y1="286.822" x2="292.33" y2="65.8214" gradientUnits="userSpaceOnUse">
<stop stop-color="#141414"/>
<stop offset="1" stop-color="#222222"/>
</linearGradient>
<linearGradient id="paint4_linear" x1="8.40992" y1="96.378" x2="20.9025" y2="96.3199" gradientUnits="userSpaceOnUse">
<stop stop-color="#E9CB67"/>
<stop offset="1" stop-color="#E8CA66" stop-opacity="0"/>
</linearGradient>
<linearGradient id="paint5_linear" x1="241.499" y1="57.2614" x2="231.84" y2="57.3195" gradientUnits="userSpaceOnUse">
<stop stop-color="#E9CB67"/>
<stop offset="0.619934" stop-color="#E9CB67" stop-opacity="0.399491"/>
<stop offset="0.973958" stop-color="#E9CB67" stop-opacity="0"/>
</linearGradient>
<linearGradient id="paint6_linear" x1="181" y1="13.5" x2="35.5" y2="222.5" gradientUnits="userSpaceOnUse">
<stop stop-color="#242B3D"/>
<stop offset="0.480568" stop-color="#323C54"/>
<stop offset="1" stop-color="#242B3D"/>
</linearGradient>
<linearGradient id="paint7_linear" x1="132.007" y1="316.741" x2="323.472" y2="54.2385" gradientUnits="userSpaceOnUse">
<stop stop-color="#141414"/>
<stop offset="1" stop-color="#222222"/>
</linearGradient>
<linearGradient id="paint8_linear" x1="-13.7666" y1="90.5335" x2="1.07199" y2="90.4645" gradientUnits="userSpaceOnUse">
<stop stop-color="#E9CB67"/>
<stop offset="1" stop-color="#E8CA66" stop-opacity="0"/>
</linearGradient>
<linearGradient id="paint9_linear" x1="263.096" y1="44.071" x2="251.622" y2="44.14" gradientUnits="userSpaceOnUse">
<stop stop-color="#E9CB67"/>
<stop offset="0.619934" stop-color="#E9CB67" stop-opacity="0.399491"/>
<stop offset="0.973958" stop-color="#E9CB67" stop-opacity="0"/>
</linearGradient>
<linearGradient id="paint10_linear" x1="165" y1="-7" x2="125.5" y2="267" gradientUnits="userSpaceOnUse">
<stop stop-color="#1E2B1C"/>
<stop offset="0.240019" stop-color="#31442E"/>
<stop offset="0.538477" stop-color="#1B2719"/>
<stop offset="0.74454" stop-color="#30422D"/>
<stop offset="1" stop-color="#1E2B1C"/>
</linearGradient>
</defs>
</svg>
