<svg width="40" height="40" viewBox="0 0 40 40" fill="none" xmlns="http://www.w3.org/2000/svg">
<path d="M29.2099 23.89C28.5737 25.3944 27.5787 26.7202 26.3118 27.7513C25.0449 28.7823 23.5447 29.4874 21.9424 29.8047C20.34 30.1221 18.6843 30.0421 17.1201 29.5718C15.5558 29.1014 14.1305 28.255 12.9689 27.1066C11.8073 25.9582 10.9447 24.5427 10.4565 22.9839C9.96837 21.4251 9.86948 19.7704 10.1685 18.1646C10.4675 16.5587 11.1554 15.0506 12.172 13.772C13.1885 12.4934 14.5028 11.4833 15.9999 10.83" stroke="url(#paint0_linear)" stroke-width="2" stroke-linecap="round" stroke-linejoin="round"/>
<path d="M30 20C30 18.6868 29.7413 17.3864 29.2388 16.1732C28.7362 14.9599 27.9997 13.8575 27.0711 12.9289C26.1425 12.0003 25.0401 11.2638 23.8268 10.7612C22.6136 10.2587 21.3132 10 20 10V20H30Z" stroke="url(#paint1_linear)" stroke-width="2" stroke-linecap="round" stroke-linejoin="round"/>
<defs>
<linearGradient id="paint0_linear" x1="-4.39954" y1="38.718" x2="28.8288" y2="48.7804" gradientUnits="userSpaceOnUse">
<stop stop-color="#D39A47"/>
<stop offset="1" stop-color="#F3E376"/>
</linearGradient>
<linearGradient id="paint1_linear" x1="12.5046" y1="24.5513" x2="29.8084" y2="29.7791" gradientUnits="userSpaceOnUse">
<stop stop-color="#D39A47"/>
<stop offset="1" stop-color="#F3E376"/>
</linearGradient>
</defs>
</svg>
