<svg width="1804" height="127" viewBox="0 0 1804 127" fill="none" xmlns="http://www.w3.org/2000/svg">
<g clip-path="url(#clip0)">
<path d="M2005.41 26.2099C1258.93 -63.8856 1250.56 165.792 1.8031 131.856L1987.75 273.628L2005.41 26.2099Z" fill="url(#paint0_linear)"/>
<path d="M277.651 146.851C193.225 143.866 101.613 138.981 1.8031 131.856L277.651 146.851C1309.47 183.328 1268.16 -64.0004 2005.42 26.1512L1969.68 238.827L277.651 146.851Z" fill="url(#paint1_linear)"/>
<path d="M184.393 141.787C126.734 139.268 65.9636 135.987 1.80305 131.856L184.393 141.787C1274.68 189.422 1252.7 -35.4481 2010.22 57.1096L1969.68 238.889L184.393 141.787Z" fill="url(#paint2_linear)"/>
</g>
<defs>
<linearGradient id="paint0_linear" x1="527.445" y1="204.771" x2="732.61" y2="656.276" gradientUnits="userSpaceOnUse">
<stop stop-color="#D39A47"/>
<stop offset="1" stop-color="#F3E376"/>
</linearGradient>
<linearGradient id="paint1_linear" x1="1956.31" y1="18.8697" x2="1810.15" y2="-237.883" gradientUnits="userSpaceOnUse">
<stop stop-color="#B47F31"/>
<stop offset="1" stop-color="#CD9441"/>
</linearGradient>
<linearGradient id="paint2_linear" x1="1987.8" y1="-50.0192" x2="1840.93" y2="-289.624" gradientUnits="userSpaceOnUse">
<stop stop-color="#D39A47"/>
<stop offset="1" stop-color="#A77328"/>
</linearGradient>
<clipPath id="clip0">
<rect width="1804" height="127" fill="white"/>
</clipPath>
</defs>
</svg>
