<svg width="475" height="591" viewBox="0 0 475 591" fill="none" xmlns="http://www.w3.org/2000/svg">
<g clip-path="url(#clip0)">
<mask id="mask0" mask-type="alpha" maskUnits="userSpaceOnUse" x="109" y="8" width="238" height="574">
<path d="M221.282 64.7142H214.691V120.648H221.282V64.7142Z" fill="#AC8A63"/>
<path d="M221.282 123.943H214.691V176.592H221.282V123.943Z" fill="#AC8A63"/>
<path d="M221.282 179.876H214.691V235.81H221.282V179.876Z" fill="#AC8A63"/>
<path d="M221.282 252.27H214.691V397.052H221.282V252.27Z" fill="#AC8A63"/>
<path d="M221.282 413.501H214.691V568.153H221.282V413.501Z" fill="#AC8A63"/>
<path d="M211.402 123.943H204.812V176.592H211.402V123.943Z" fill="#AC8A63"/>
<path d="M211.402 179.876H204.812V235.81H211.402V179.876Z" fill="#AC8A63"/>
<path d="M211.402 252.27H204.812V397.052H211.402V252.27Z" fill="#AC8A63"/>
<path d="M211.402 413.501H204.812V568.153H211.402V413.501Z" fill="#AC8A63"/>
<path d="M201.522 179.876H194.932V235.81H201.522V179.876Z" fill="#AC8A63"/>
<path d="M270.714 239.11H185.051V248.98H270.714V239.11Z" fill="#AC8A63"/>
<path d="M270.714 400.342H185.051V410.212H270.714V400.342Z" fill="#AC8A63"/>
<path d="M270.714 571.443H185.051V581.313H270.714V571.443Z" fill="#AC8A63"/>
<path d="M201.522 252.27H194.932V397.052H201.522V252.27Z" fill="#AC8A63"/>
<path d="M201.522 413.501H194.932V568.153H201.522V413.501Z" fill="#AC8A63"/>
<path d="M231.178 64.7142H224.588V120.648H231.178V64.7142Z" fill="#AC8A63"/>
<path d="M231.178 123.943H224.588V176.592H231.178V123.943Z" fill="#AC8A63"/>
<path d="M231.178 179.876H224.588V235.81H231.178V179.876Z" fill="#AC8A63"/>
<path d="M231.178 252.27H224.588V397.052H231.178V252.27Z" fill="#AC8A63"/>
<path d="M231.178 413.501H224.588V568.153H231.178V413.501Z" fill="#AC8A63"/>
<path d="M231.178 8.77515H224.588V61.4241H231.178V8.77515Z" fill="#AC8A63"/>
<path d="M241.058 64.7142H234.468V120.648H241.058V64.7142Z" fill="#AC8A63"/>
<path d="M241.058 123.943H234.468V176.592H241.058V123.943Z" fill="#AC8A63"/>
<path d="M241.058 179.876H234.468V235.81H241.058V179.876Z" fill="#AC8A63"/>
<path d="M241.058 252.27H234.468V397.052H241.058V252.27Z" fill="#AC8A63"/>
<path d="M241.058 413.501H234.468V568.153H241.058V413.501Z" fill="#AC8A63"/>
<path d="M250.938 123.943H244.348V176.592H250.938V123.943Z" fill="#AC8A63"/>
<path d="M250.938 179.876H244.348V235.81H250.938V179.876Z" fill="#AC8A63"/>
<path d="M250.938 252.27H244.348V397.052H250.938V252.27Z" fill="#AC8A63"/>
<path d="M251.289 413.501H244.699V568.153H251.289V413.501Z" fill="#AC8A63"/>
<path d="M260.819 179.876H254.229V235.81H260.819V179.876Z" fill="#AC8A63"/>
<path d="M260.819 252.27H254.229V397.052H260.819V252.27Z" fill="#AC8A63"/>
<path d="M260.819 413.501H254.229V568.153H260.819V413.501Z" fill="#AC8A63"/>
<path d="M270.714 252.27H264.124V397.052H270.714V252.27Z" fill="#AC8A63"/>
<path d="M270.714 413.501H264.124V568.153H270.714V413.501Z" fill="#AC8A63"/>
<path d="M283.89 354.278H277.299V581.318H283.89V354.278Z" fill="#AC8A63"/>
<path d="M178.456 354.278H171.866V581.318H178.456V354.278Z" fill="#AC8A63"/>
<path d="M293.77 423.376H287.18V581.318H293.77V423.376Z" fill="#AC8A63"/>
<path d="M168.576 423.376H161.985V581.318H168.576V423.376Z" fill="#AC8A63"/>
<path d="M316.825 531.959H297.06V581.313H316.825V531.959Z" fill="#AC8A63"/>
<path d="M158.695 531.959H138.93V581.313H158.695V531.959Z" fill="#AC8A63"/>
<path d="M346.497 561.573H320.136V581.318H346.497V561.573Z" fill="#AC8A63"/>
<path d="M135.624 561.573H109.263V581.318H135.624V561.573Z" fill="#AC8A63"/>
<path d="M191.641 239.11H185.051V581.318H191.641V239.11Z" fill="#AC8A63"/>
</mask>
<g mask="url(#mask0)">
<rect x="-80.1763" y="-95" width="715.338" height="814.836" fill="url(#paint0_linear)"/>
</g>
<mask id="mask1" mask-type="alpha" maskUnits="userSpaceOnUse" x="364" y="139" width="87" height="404">
<path d="M399.556 311H394.556V534H399.556V311Z" fill="#AC8A63"/>
<path d="M392.556 311H387.556V534H392.556V311Z" fill="#AC8A63"/>
<path d="M434.556 305H380.556V309H434.556V305Z" fill="#AC8A63"/>
<path d="M434.556 536H380.556V543H434.556V536Z" fill="#AC8A63"/>
<path d="M385.556 311H380.556V534H385.556V311Z" fill="#AC8A63"/>
<path d="M406.556 311H401.556V534H406.556V311Z" fill="#AC8A63"/>
<path d="M413.556 311H408.556V534H413.556V311Z" fill="#AC8A63"/>
<path d="M420.556 311H415.556V534H420.556V311Z" fill="#AC8A63"/>
<path d="M403.102 179.152H398.463V218.52H403.102V179.152Z" fill="#AC8A63"/>
<path d="M403.102 220.839H398.463V257.894H403.102V220.839Z" fill="#AC8A63"/>
<path d="M403.102 260.206H398.463V299.573H403.102V260.206Z" fill="#AC8A63"/>
<path d="M396.148 220.839H391.51V257.894H396.148V220.839Z" fill="#AC8A63"/>
<path d="M396.148 260.206H391.51V299.573H396.148V260.206Z" fill="#AC8A63"/>
<path d="M389.194 260.206H384.556V299.573H389.194V260.206Z" fill="#AC8A63"/>
<path d="M410.067 179.152H405.428V218.52H410.067V179.152Z" fill="#AC8A63"/>
<path d="M410.067 220.839H405.428V257.894H410.067V220.839Z" fill="#AC8A63"/>
<path d="M410.067 260.206H405.428V299.573H410.067V260.206Z" fill="#AC8A63"/>
<path d="M410.067 139.781H405.428V176.837H410.067V139.781Z" fill="#AC8A63"/>
<path d="M417.02 179.152H412.382V218.52H417.02V179.152Z" fill="#AC8A63"/>
<path d="M417.02 220.839H412.382V257.894H417.02V220.839Z" fill="#AC8A63"/>
<path d="M417.02 260.206H412.382V299.573H417.02V260.206Z" fill="#AC8A63"/>
<path d="M423.974 220.839H419.336V257.894H423.974V220.839Z" fill="#AC8A63"/>
<path d="M423.974 260.206H419.336V299.573H423.974V260.206Z" fill="#AC8A63"/>
<path d="M430.928 260.206H426.29V299.573H430.928V260.206Z" fill="#AC8A63"/>
<path d="M427.556 311H422.556V534H427.556V311Z" fill="#AC8A63"/>
<path d="M434.556 311H429.556V534H434.556V311Z" fill="#AC8A63"/>
<path d="M443.462 382.954H438.824V542.749H443.462V382.954Z" fill="#AC8A63"/>
<path d="M376.256 382.954H371.617V542.749H376.256V382.954Z" fill="#AC8A63"/>
<path d="M450.416 431.586H445.777V542.749H450.416V431.586Z" fill="#AC8A63"/>
<path d="M369.301 431.586H364.663V542.749H369.301V431.586Z" fill="#AC8A63"/>
</mask>
<g mask="url(#mask1)">
<rect x="298.556" y="-8" width="206" height="623" fill="url(#paint1_linear)"/>
</g>
<mask id="mask2" mask-type="alpha" maskUnits="userSpaceOnUse" x="40" y="276" width="54" height="249">
<path d="M61.786 381.885H58.7129V518.946H61.786V381.885Z" fill="#AC8A63"/>
<path d="M57.4838 381.885H54.4106V518.946H57.4838V381.885Z" fill="#AC8A63"/>
<path d="M83.298 378.197H50.1084V380.656H83.298V378.197Z" fill="#AC8A63"/>
<path d="M83.298 520.175H50.1084V524.477H83.298V520.175Z" fill="#AC8A63"/>
<path d="M53.1815 381.885H50.1084V518.946H53.1815V381.885Z" fill="#AC8A63"/>
<path d="M66.0887 381.885H63.0156V518.946H66.0887V381.885Z" fill="#AC8A63"/>
<path d="M70.391 381.885H67.3179V518.946H70.391V381.885Z" fill="#AC8A63"/>
<path d="M74.6932 381.885H71.6201V518.946H74.6932V381.885Z" fill="#AC8A63"/>
<path d="M63.9656 300.848H61.1147V325.044H63.9656V300.848Z" fill="#AC8A63"/>
<path d="M63.9656 326.47H61.1147V349.245H63.9656V326.47Z" fill="#AC8A63"/>
<path d="M63.9656 350.666H61.1147V374.862H63.9656V350.666Z" fill="#AC8A63"/>
<path d="M59.6917 326.47H56.8408V349.245H59.6917V326.47Z" fill="#AC8A63"/>
<path d="M59.6917 350.666H56.8408V374.862H59.6917V350.666Z" fill="#AC8A63"/>
<path d="M55.4177 350.666H52.5669V374.862H55.4177V350.666Z" fill="#AC8A63"/>
<path d="M68.2463 300.848H65.3955V325.044H68.2463V300.848Z" fill="#AC8A63"/>
<path d="M68.2463 326.47H65.3955V349.245H68.2463V326.47Z" fill="#AC8A63"/>
<path d="M68.2463 350.666H65.3955V374.862H68.2463V350.666Z" fill="#AC8A63"/>
<path d="M68.2463 276.65H65.3955V299.425H68.2463V276.65Z" fill="#AC8A63"/>
<path d="M72.5208 300.848H69.6699V325.044H72.5208V300.848Z" fill="#AC8A63"/>
<path d="M72.5208 326.47H69.6699V349.245H72.5208V326.47Z" fill="#AC8A63"/>
<path d="M72.5208 350.666H69.6699V374.862H72.5208V350.666Z" fill="#AC8A63"/>
<path d="M76.7948 326.47H73.9438V349.245H76.7948V326.47Z" fill="#AC8A63"/>
<path d="M76.7948 350.666H73.9438V374.862H76.7948V350.666Z" fill="#AC8A63"/>
<path d="M81.0686 350.666H78.2178V374.862H81.0686V350.666Z" fill="#AC8A63"/>
<path d="M78.996 381.885H75.9229V518.946H78.996V381.885Z" fill="#AC8A63"/>
<path d="M83.2977 381.885H80.2246V518.946H83.2977V381.885Z" fill="#AC8A63"/>
<path d="M88.7722 426.109H85.9214V524.323H88.7722V426.109Z" fill="#AC8A63"/>
<path d="M47.4652 426.109H44.6143V524.323H47.4652V426.109Z" fill="#AC8A63"/>
<path d="M93.0461 456H90.1953V524.323H93.0461V456Z" fill="#AC8A63"/>
<path d="M43.1912 456H40.3403V524.323H43.1912V456Z" fill="#AC8A63"/>
</mask>
<g mask="url(#mask2)">
<rect x="-0.444336" y="211" width="127" height="358" fill="url(#paint2_linear)"/>
</g>
<mask id="mask3" mask-type="alpha" maskUnits="userSpaceOnUse" x="302" y="203" width="54" height="249">
<path d="M323.786 308.885H320.713V445.946H323.786V308.885Z" fill="#AC8A63"/>
<path d="M319.484 308.885H316.411V445.946H319.484V308.885Z" fill="#AC8A63"/>
<path d="M345.298 305.197H312.108V307.656H345.298V305.197Z" fill="#AC8A63"/>
<path d="M345.298 447.175H312.108V451.477H345.298V447.175Z" fill="#AC8A63"/>
<path d="M315.182 308.885H312.108V445.946H315.182V308.885Z" fill="#AC8A63"/>
<path d="M328.089 308.885H325.016V445.946H328.089V308.885Z" fill="#AC8A63"/>
<path d="M332.391 308.885H329.318V445.946H332.391V308.885Z" fill="#AC8A63"/>
<path d="M336.693 308.885H333.62V445.946H336.693V308.885Z" fill="#AC8A63"/>
<path d="M325.966 227.848H323.115V252.044H325.966V227.848Z" fill="#AC8A63"/>
<path d="M325.966 253.47H323.115V276.245H325.966V253.47Z" fill="#AC8A63"/>
<path d="M325.966 277.666H323.115V301.862H325.966V277.666Z" fill="#AC8A63"/>
<path d="M321.692 253.47H318.841V276.245H321.692V253.47Z" fill="#AC8A63"/>
<path d="M321.692 277.666H318.841V301.862H321.692V277.666Z" fill="#AC8A63"/>
<path d="M317.418 277.666H314.567V301.862H317.418V277.666Z" fill="#AC8A63"/>
<path d="M330.246 227.848H327.396V252.044H330.246V227.848Z" fill="#AC8A63"/>
<path d="M330.246 253.47H327.396V276.245H330.246V253.47Z" fill="#AC8A63"/>
<path d="M330.246 277.666H327.396V301.862H330.246V277.666Z" fill="#AC8A63"/>
<path d="M330.246 203.65H327.396V226.425H330.246V203.65Z" fill="#AC8A63"/>
<path d="M334.521 227.848H331.67V252.044H334.521V227.848Z" fill="#AC8A63"/>
<path d="M334.521 253.47H331.67V276.245H334.521V253.47Z" fill="#AC8A63"/>
<path d="M334.521 277.666H331.67V301.862H334.521V277.666Z" fill="#AC8A63"/>
<path d="M338.795 253.47H335.944V276.245H338.795V253.47Z" fill="#AC8A63"/>
<path d="M338.795 277.666H335.944V301.862H338.795V277.666Z" fill="#AC8A63"/>
<path d="M343.069 277.666H340.218V301.862H343.069V277.666Z" fill="#AC8A63"/>
<path d="M340.996 308.885H337.923V445.946H340.996V308.885Z" fill="#AC8A63"/>
<path d="M345.298 308.885H342.225V445.946H345.298V308.885Z" fill="#AC8A63"/>
<path d="M350.772 353.109H347.921V451.323H350.772V353.109Z" fill="#AC8A63"/>
<path d="M309.465 353.109H306.614V451.323H309.465V353.109Z" fill="#AC8A63"/>
<path d="M355.046 383H352.195V451.323H355.046V383Z" fill="#AC8A63"/>
<path d="M305.191 383H302.34V451.323H305.191V383Z" fill="#AC8A63"/>
</mask>
<g mask="url(#mask3)">
<rect x="261.556" y="138" width="127" height="358" fill="url(#paint3_linear)"/>
</g>
<mask id="mask4" mask-type="alpha" maskUnits="userSpaceOnUse" x="96" y="128" width="62" height="285">
<path d="M121.636 249.047H118.104V406.605H121.636V249.047Z" fill="#AC8A63"/>
<path d="M116.69 249.047H113.158V406.605H116.69V249.047Z" fill="#AC8A63"/>
<path d="M146.365 244.808H108.212V247.634H146.365V244.808Z" fill="#AC8A63"/>
<path d="M146.365 408.018H108.212V412.964H146.365V408.018Z" fill="#AC8A63"/>
<path d="M111.745 249.047H108.212V406.605H111.745V249.047Z" fill="#AC8A63"/>
<path d="M126.582 249.047H123.049V406.605H126.582V249.047Z" fill="#AC8A63"/>
<path d="M131.528 249.047H127.995V406.605H131.528V249.047Z" fill="#AC8A63"/>
<path d="M136.474 249.047H132.941V406.605H136.474V249.047Z" fill="#AC8A63"/>
<path d="M124.141 155.892H120.864V183.707H124.141V155.892Z" fill="#AC8A63"/>
<path d="M124.141 185.345H120.864V211.526H124.141V185.345Z" fill="#AC8A63"/>
<path d="M124.141 213.159H120.864V240.974H124.141V213.159Z" fill="#AC8A63"/>
<path d="M119.228 185.345H115.951V211.526H119.228V185.345Z" fill="#AC8A63"/>
<path d="M119.228 213.159H115.951V240.974H119.228V213.159Z" fill="#AC8A63"/>
<path d="M114.315 213.159H111.038V240.974H114.315V213.159Z" fill="#AC8A63"/>
<path d="M129.063 155.892H125.786V183.707H129.063V155.892Z" fill="#AC8A63"/>
<path d="M129.063 185.345H125.786V211.526H129.063V185.345Z" fill="#AC8A63"/>
<path d="M129.063 213.159H125.786V240.974H129.063V213.159Z" fill="#AC8A63"/>
<path d="M129.063 128.075H125.786V154.256H129.063V128.075Z" fill="#AC8A63"/>
<path d="M133.976 155.892H130.699V183.707H133.976V155.892Z" fill="#AC8A63"/>
<path d="M133.976 185.345H130.699V211.526H133.976V185.345Z" fill="#AC8A63"/>
<path d="M133.976 213.159H130.699V240.974H133.976V213.159Z" fill="#AC8A63"/>
<path d="M138.889 185.345H135.612V211.526H138.889V185.345Z" fill="#AC8A63"/>
<path d="M138.889 213.159H135.612V240.974H138.889V213.159Z" fill="#AC8A63"/>
<path d="M143.803 213.159H140.525V240.974H143.803V213.159Z" fill="#AC8A63"/>
<path d="M141.419 249.047H137.887V406.605H141.419V249.047Z" fill="#AC8A63"/>
<path d="M146.365 249.047H142.833V406.605H146.365V249.047Z" fill="#AC8A63"/>
<path d="M152.658 299.885H149.381V412.787H152.658V299.885Z" fill="#AC8A63"/>
<path d="M105.174 299.885H101.896V412.787H105.174V299.885Z" fill="#AC8A63"/>
<path d="M157.571 334.246H154.294V412.786H157.571V334.246Z" fill="#AC8A63"/>
<path d="M100.26 334.246H96.9834V412.786H100.26V334.246Z" fill="#AC8A63"/>
</mask>
<g mask="url(#mask4)">
<rect x="46.0996" y="52.6074" width="145.992" height="411.538" fill="url(#paint4_linear)"/>
</g>
</g>
<defs>
<linearGradient id="paint0_linear" x1="212.056" y1="800" x2="588.161" y2="418.016" gradientUnits="userSpaceOnUse">
<stop stop-color="#D39A47" stop-opacity="0"/>
<stop offset="1" stop-color="#F3E376"/>
</linearGradient>
<linearGradient id="paint1_linear" x1="504.556" y1="586.973" x2="695.869" y2="166.437" gradientUnits="userSpaceOnUse">
<stop stop-color="#D39A47" stop-opacity="0"/>
<stop offset="1" stop-color="#F3E376"/>
</linearGradient>
<linearGradient id="paint2_linear" x1="126.556" y1="552.895" x2="254.497" y2="297.999" gradientUnits="userSpaceOnUse">
<stop stop-color="#D39A47" stop-opacity="0"/>
<stop offset="1" stop-color="#DDB055"/>
</linearGradient>
<linearGradient id="paint3_linear" x1="388.556" y1="479.895" x2="516.497" y2="224.999" gradientUnits="userSpaceOnUse">
<stop stop-color="#D39A47" stop-opacity="0"/>
<stop offset="1" stop-color="#DDB055"/>
</linearGradient>
<linearGradient id="paint4_linear" x1="192.092" y1="445.631" x2="339.167" y2="152.617" gradientUnits="userSpaceOnUse">
<stop stop-color="#D39A47" stop-opacity="0"/>
<stop offset="1" stop-color="#DDB055"/>
</linearGradient>
<clipPath id="clip0">
<rect width="475" height="591" fill="white"/>
</clipPath>
</defs>
</svg>
