<svg width="26" height="28" viewBox="0 0 26 28" fill="none" xmlns="http://www.w3.org/2000/svg">
<path d="M15.464 0H10.1307C4.54465 0 0 4.54358 0 10.1285V14.9329C0 19.092 2.55573 22.8299 6.39866 24.3522V27.4668C6.39866 27.6779 6.5229 27.8688 6.71593 27.9541C6.78525 27.9851 6.85883 28 6.93188 28C7.06145 28 7.18996 27.9525 7.28967 27.8619L10.3818 25.0614H15.464C21.05 25.0614 25.5946 20.5178 25.5946 14.9329V10.1285C25.5946 4.54358 21.05 0 15.464 0ZM24.5282 14.9329C24.5282 19.9297 20.4624 23.995 15.464 23.995H10.176C10.0438 23.995 9.91632 24.044 9.81821 24.1331L7.4651 26.2644V23.9827C7.4651 23.7566 7.32273 23.5551 7.10944 23.4804C3.49527 22.2023 1.06644 18.7673 1.06644 14.9329V10.1285C1.06644 5.13172 5.13279 1.06644 10.1307 1.06644H15.464C20.4624 1.06644 24.5282 5.13172 24.5282 10.1285V14.9329V14.9329Z" fill="white"/>
<path d="M19.8447 16.2594L16.5675 14.1308C16.2092 13.8978 15.7826 13.8189 15.3651 13.9052C14.9471 13.9932 14.5877 14.2401 14.3546 14.6L14.2005 14.8368C12.7822 14.3681 11.2182 13.7693 10.2819 11.0589L10.6696 10.7219C11.335 10.1434 11.4049 9.13131 10.8263 8.46478L8.26259 5.51553C8.06956 5.29318 7.73257 5.27025 7.51021 5.46274L5.90042 6.86192C4.48845 8.08939 5.14804 9.90501 5.36506 10.5017C5.37466 10.5283 5.38639 10.5539 5.40026 10.579C5.45624 10.6792 6.79303 13.0649 8.95204 15.2639C11.1196 17.472 15.0329 19.511 15.1529 19.5702C15.5997 19.8603 16.1025 19.9994 16.6 19.9994C17.4735 19.9994 18.3298 19.5713 18.8406 18.7864L20.002 16.9979C20.162 16.75 20.0916 16.4199 19.8447 16.2594ZM17.9459 18.2051C17.4655 18.9453 16.4726 19.1553 15.6888 18.6498C15.6498 18.6296 11.7621 16.6049 9.71295 14.5174C7.79762 12.5663 6.52589 10.3988 6.35259 10.0964C5.93028 8.91215 6.00493 8.18431 6.6 7.66708L7.80775 6.6177L10.0217 9.16437C10.2184 9.39045 10.1955 9.72105 9.9705 9.91674L9.31623 10.4852C9.1568 10.6238 9.09388 10.8429 9.15627 11.0445C10.2718 14.6693 12.4409 15.3812 14.0246 15.9011L14.2555 15.9773C14.4864 16.0552 14.7391 15.9661 14.8713 15.7625L15.2494 15.1802C15.3272 15.0597 15.4467 14.9781 15.5853 14.9488C15.7245 14.9189 15.8663 14.9466 15.9868 15.025L18.8172 16.863L17.9459 18.2051Z" fill="white"/>
<path d="M14.0145 8.66322C13.7308 8.58163 13.4359 8.7464 13.3554 9.03007C13.2749 9.31321 13.4391 9.60809 13.7223 9.6886C14.5168 9.91469 15.1497 10.5487 15.3737 11.3437C15.4398 11.5783 15.6536 11.7324 15.8866 11.7324C15.9346 11.7324 15.9831 11.726 16.0317 11.7127C16.3148 11.6327 16.4801 11.3384 16.4001 11.0547C16.0765 9.90616 15.162 8.98955 14.0145 8.66322Z" fill="white"/>
<path d="M18.0731 11.8476C18.1211 11.8476 18.1696 11.8412 18.2181 11.8279C18.5018 11.7479 18.6666 11.453 18.5866 11.1699C17.9574 8.93941 16.1823 7.16058 13.9534 6.52605C13.6703 6.44447 13.3754 6.6103 13.2949 6.89344C13.2144 7.17658 13.3786 7.47145 13.6617 7.55197C15.5371 8.08519 17.0306 9.58301 17.5601 11.4594C17.6268 11.694 17.8401 11.8476 18.0731 11.8476Z" fill="white"/>
<path d="M13.723 4.04273C13.4393 3.96115 13.1444 4.12591 13.0639 4.41012C12.9834 4.69326 13.1476 4.98813 13.4308 5.06865C16.6082 5.97246 19.1395 8.50953 20.0363 11.6891C20.1024 11.9237 20.3163 12.0778 20.5493 12.0778C20.5973 12.0778 20.6458 12.0714 20.6943 12.0581C20.9775 11.9781 21.1428 11.6833 21.0628 11.4001C20.0662 7.86646 17.254 5.04785 13.723 4.04273Z" fill="white"/>
</svg>
