<svg width="212" height="231" viewBox="0 0 212 231" fill="none" xmlns="http://www.w3.org/2000/svg">
<g clip-path="url(#clip0)">
<mask id="mask0" mask-type="alpha" maskUnits="userSpaceOnUse" x="61" y="6" width="91" height="219">
<path d="M103.999 28.0668H101.487V49.3855H103.999V28.0668Z" fill="#AC8A63"/>
<path d="M103.999 50.6411H101.487V70.7079H103.999V50.6411Z" fill="#AC8A63"/>
<path d="M103.999 71.9597H101.487V93.2784H103.999V71.9597Z" fill="#AC8A63"/>
<path d="M103.999 99.5522H101.487V154.735H103.999V99.5522Z" fill="#AC8A63"/>
<path d="M103.999 161.004H101.487V219.949H103.999V161.004Z" fill="#AC8A63"/>
<path d="M100.233 50.6411H97.7217V70.7079H100.233V50.6411Z" fill="#AC8A63"/>
<path d="M100.233 71.9597H97.7217V93.2784H100.233V71.9597Z" fill="#AC8A63"/>
<path d="M100.233 99.5522H97.7217V154.735H100.233V99.5522Z" fill="#AC8A63"/>
<path d="M100.233 161.004H97.7217V219.949H100.233V161.004Z" fill="#AC8A63"/>
<path d="M96.4679 71.9597H93.9561V93.2784H96.4679V71.9597Z" fill="#AC8A63"/>
<path d="M122.839 94.5363H90.1895V98.2981H122.839V94.5363Z" fill="#AC8A63"/>
<path d="M122.839 155.989H90.1895V159.751H122.839V155.989Z" fill="#AC8A63"/>
<path d="M122.839 221.203H90.1895V224.964H122.839V221.203Z" fill="#AC8A63"/>
<path d="M96.4679 99.5522H93.9561V154.735H96.4679V99.5522Z" fill="#AC8A63"/>
<path d="M96.4679 161.004H93.9561V219.949H96.4679V161.004Z" fill="#AC8A63"/>
<path d="M107.771 28.0668H105.259V49.3855H107.771V28.0668Z" fill="#AC8A63"/>
<path d="M107.771 50.6411H105.259V70.7079H107.771V50.6411Z" fill="#AC8A63"/>
<path d="M107.771 71.9597H105.259V93.2784H107.771V71.9597Z" fill="#AC8A63"/>
<path d="M107.771 99.5522H105.259V154.735H107.771V99.5522Z" fill="#AC8A63"/>
<path d="M107.771 161.004H105.259V219.949H107.771V161.004Z" fill="#AC8A63"/>
<path d="M107.771 6.74597H105.259V26.8128H107.771V6.74597Z" fill="#AC8A63"/>
<path d="M111.537 28.0668H109.025V49.3855H111.537V28.0668Z" fill="#AC8A63"/>
<path d="M111.537 50.6411H109.025V70.7079H111.537V50.6411Z" fill="#AC8A63"/>
<path d="M111.537 71.9597H109.025V93.2784H111.537V71.9597Z" fill="#AC8A63"/>
<path d="M111.537 99.5522H109.025V154.735H111.537V99.5522Z" fill="#AC8A63"/>
<path d="M111.537 161.004H109.025V219.949H111.537V161.004Z" fill="#AC8A63"/>
<path d="M115.302 50.6411H112.79V70.7079H115.302V50.6411Z" fill="#AC8A63"/>
<path d="M115.302 71.9597H112.79V93.2784H115.302V71.9597Z" fill="#AC8A63"/>
<path d="M115.302 99.5522H112.79V154.735H115.302V99.5522Z" fill="#AC8A63"/>
<path d="M115.436 161.004H112.924V219.949H115.436V161.004Z" fill="#AC8A63"/>
<path d="M119.068 71.9597H116.556V93.2784H119.068V71.9597Z" fill="#AC8A63"/>
<path d="M119.068 99.5522H116.556V154.735H119.068V99.5522Z" fill="#AC8A63"/>
<path d="M119.068 161.004H116.556V219.949H119.068V161.004Z" fill="#AC8A63"/>
<path d="M122.839 99.5522H120.328V154.735H122.839V99.5522Z" fill="#AC8A63"/>
<path d="M122.839 161.004H120.328V219.949H122.839V161.004Z" fill="#AC8A63"/>
<path d="M127.862 138.431H125.35V224.966H127.862V138.431Z" fill="#AC8A63"/>
<path d="M87.6759 138.431H85.1641V224.966H87.6759V138.431Z" fill="#AC8A63"/>
<path d="M131.628 164.768H129.116V224.966H131.628V164.768Z" fill="#AC8A63"/>
<path d="M83.9102 164.768H81.3984V224.966H83.9102V164.768Z" fill="#AC8A63"/>
<path d="M140.415 206.153H132.881V224.964H140.415V206.153Z" fill="#AC8A63"/>
<path d="M80.1449 206.153H72.6113V224.964H80.1449V206.153Z" fill="#AC8A63"/>
<path d="M151.724 217.441H141.677V224.967H151.724V217.441Z" fill="#AC8A63"/>
<path d="M71.3505 217.441H61.3032V224.967H71.3505V217.441Z" fill="#AC8A63"/>
<path d="M92.7013 94.5363H90.1895V224.966H92.7013V94.5363Z" fill="#AC8A63"/>
</mask>
<g mask="url(#mask0)">
<rect x="-10.8994" y="-32.8074" width="272.646" height="310.569" fill="url(#paint0_linear)"/>
</g>
<mask id="mask1" mask-type="alpha" maskUnits="userSpaceOnUse" x="158" y="56" width="34" height="155">
<path d="M171.946 121.936H170.041V206.931H171.946V121.936Z" fill="#AC8A63"/>
<path d="M169.278 121.936H167.372V206.931H169.278V121.936Z" fill="#AC8A63"/>
<path d="M185.286 119.649H164.704V121.174H185.286V119.649Z" fill="#AC8A63"/>
<path d="M185.286 207.694H164.704V210.362H185.286V207.694Z" fill="#AC8A63"/>
<path d="M166.61 121.936H164.704V206.931H166.61V121.936Z" fill="#AC8A63"/>
<path d="M174.614 121.936H172.708V206.931H174.614V121.936Z" fill="#AC8A63"/>
<path d="M177.282 121.936H175.376V206.931H177.282V121.936Z" fill="#AC8A63"/>
<path d="M179.951 121.936H178.045V206.931H179.951V121.936Z" fill="#AC8A63"/>
<path d="M173.297 71.684H171.529V86.6885H173.297V71.684Z" fill="#AC8A63"/>
<path d="M173.297 87.5723H171.529V101.696H173.297V87.5723Z" fill="#AC8A63"/>
<path d="M173.297 102.577H171.529V117.581H173.297V102.577Z" fill="#AC8A63"/>
<path d="M170.647 87.5723H168.879V101.696H170.647V87.5723Z" fill="#AC8A63"/>
<path d="M170.647 102.577H168.879V117.581H170.647V102.577Z" fill="#AC8A63"/>
<path d="M167.996 102.577H166.229V117.581H167.996V102.577Z" fill="#AC8A63"/>
<path d="M175.951 71.684H174.184V86.6885H175.951V71.684Z" fill="#AC8A63"/>
<path d="M175.951 87.5723H174.184V101.696H175.951V87.5723Z" fill="#AC8A63"/>
<path d="M175.951 102.577H174.184V117.581H175.951V102.577Z" fill="#AC8A63"/>
<path d="M175.951 56.6778H174.184V70.8012H175.951V56.6778Z" fill="#AC8A63"/>
<path d="M178.602 71.684H176.834V86.6885H178.602V71.684Z" fill="#AC8A63"/>
<path d="M178.602 87.5723H176.834V101.696H178.602V87.5723Z" fill="#AC8A63"/>
<path d="M178.602 102.577H176.834V117.581H178.602V102.577Z" fill="#AC8A63"/>
<path d="M181.252 87.5723H179.484V101.696H181.252V87.5723Z" fill="#AC8A63"/>
<path d="M181.252 102.577H179.484V117.581H181.252V102.577Z" fill="#AC8A63"/>
<path d="M183.903 102.577H182.135V117.581H183.903V102.577Z" fill="#AC8A63"/>
<path d="M182.619 121.936H180.713V206.931H182.619V121.936Z" fill="#AC8A63"/>
<path d="M185.287 121.936H183.381V206.931H185.287V121.936Z" fill="#AC8A63"/>
<path d="M188.681 149.361H186.913V210.266H188.681V149.361Z" fill="#AC8A63"/>
<path d="M163.066 149.361H161.298V210.266H163.066V149.361Z" fill="#AC8A63"/>
<path d="M191.331 167.897H189.563V210.266H191.331V167.897Z" fill="#AC8A63"/>
<path d="M160.415 167.897H158.647V210.266H160.415V167.897Z" fill="#AC8A63"/>
</mask>
<g mask="url(#mask1)">
<rect x="133.451" y="0.351868" width="78.5154" height="237.452" fill="url(#paint1_linear)"/>
</g>
<mask id="mask2" mask-type="alpha" maskUnits="userSpaceOnUse" x="35" y="108" width="21" height="96">
<path d="M43.2074 148.954H42.0361V201.194H43.2074V148.954Z" fill="#AC8A63"/>
<path d="M41.5678 148.954H40.3965V201.194H41.5678V148.954Z" fill="#AC8A63"/>
<path d="M51.4068 147.548H38.7568V148.485H51.4068V147.548Z" fill="#AC8A63"/>
<path d="M51.4068 201.662H38.7568V203.302H51.4068V201.662Z" fill="#AC8A63"/>
<path d="M39.9281 148.954H38.7568V201.194H39.9281V148.954Z" fill="#AC8A63"/>
<path d="M44.8476 148.954H43.6763V201.194H44.8476V148.954Z" fill="#AC8A63"/>
<path d="M46.4872 148.954H45.3159V201.194H46.4872V148.954Z" fill="#AC8A63"/>
<path d="M48.1269 148.954H46.9556V201.194H48.1269V148.954Z" fill="#AC8A63"/>
<path d="M44.0373 118.067H42.9507V127.289H44.0373V118.067Z" fill="#AC8A63"/>
<path d="M44.0373 127.832H42.9507V136.513H44.0373V127.832Z" fill="#AC8A63"/>
<path d="M44.0373 137.055H42.9507V146.277H44.0373V137.055Z" fill="#AC8A63"/>
<path d="M42.4093 127.832H41.3228V136.513H42.4093V127.832Z" fill="#AC8A63"/>
<path d="M42.4093 137.055H41.3228V146.277H42.4093V137.055Z" fill="#AC8A63"/>
<path d="M40.7794 137.055H39.6929V146.277H40.7794V137.055Z" fill="#AC8A63"/>
<path d="M45.6686 118.067H44.582V127.289H45.6686V118.067Z" fill="#AC8A63"/>
<path d="M45.6686 127.832H44.582V136.513H45.6686V127.832Z" fill="#AC8A63"/>
<path d="M45.6686 137.055H44.582V146.277H45.6686V137.055Z" fill="#AC8A63"/>
<path d="M45.6686 108.844H44.582V117.524H45.6686V108.844Z" fill="#AC8A63"/>
<path d="M47.2975 118.067H46.2109V127.289H47.2975V118.067Z" fill="#AC8A63"/>
<path d="M47.2975 127.832H46.2109V136.513H47.2975V127.832Z" fill="#AC8A63"/>
<path d="M47.2975 137.055H46.2109V146.277H47.2975V137.055Z" fill="#AC8A63"/>
<path d="M48.9274 127.832H47.8408V136.513H48.9274V127.832Z" fill="#AC8A63"/>
<path d="M48.9274 137.055H47.8408V146.277H48.9274V137.055Z" fill="#AC8A63"/>
<path d="M50.5558 137.055H49.4692V146.277H50.5558V137.055Z" fill="#AC8A63"/>
<path d="M49.7675 148.954H48.5962V201.194H49.7675V148.954Z" fill="#AC8A63"/>
<path d="M51.4062 148.954H50.2349V201.194H51.4062V148.954Z" fill="#AC8A63"/>
<path d="M53.4923 165.81H52.4058V203.243H53.4923V165.81Z" fill="#AC8A63"/>
<path d="M37.7497 165.81H36.6631V203.243H37.7497V165.81Z" fill="#AC8A63"/>
<path d="M55.1217 177.202H54.0352V203.243H55.1217V177.202Z" fill="#AC8A63"/>
<path d="M36.1208 177.202H35.0342V203.243H36.1208V177.202Z" fill="#AC8A63"/>
</mask>
<g mask="url(#mask2)">
<rect x="19.4888" y="83.8224" width="48.4052" height="136.449" fill="url(#paint2_linear)"/>
</g>
<mask id="mask3" mask-type="alpha" maskUnits="userSpaceOnUse" x="134" y="81" width="21" height="95">
<path d="M143.068 121.13H141.896V173.37H143.068V121.13Z" fill="#AC8A63"/>
<path d="M141.428 121.13H140.257V173.37H141.428V121.13Z" fill="#AC8A63"/>
<path d="M151.268 119.725H138.618V120.662H151.268V119.725Z" fill="#AC8A63"/>
<path d="M151.268 173.839H138.618V175.479H151.268V173.839Z" fill="#AC8A63"/>
<path d="M139.789 121.13H138.618V173.37H139.789V121.13Z" fill="#AC8A63"/>
<path d="M144.707 121.13H143.536V173.37H144.707V121.13Z" fill="#AC8A63"/>
<path d="M146.348 121.13H145.177V173.37H146.348V121.13Z" fill="#AC8A63"/>
<path d="M147.988 121.13H146.816V173.37H147.988V121.13Z" fill="#AC8A63"/>
<path d="M143.899 90.2439H142.812V99.466H143.899V90.2439Z" fill="#AC8A63"/>
<path d="M143.899 100.009H142.812V108.69H143.899V100.009Z" fill="#AC8A63"/>
<path d="M143.899 109.232H142.812V118.454H143.899V109.232Z" fill="#AC8A63"/>
<path d="M142.271 100.009H141.185V108.69H142.271V100.009Z" fill="#AC8A63"/>
<path d="M142.271 109.232H141.185V118.454H142.271V109.232Z" fill="#AC8A63"/>
<path d="M140.641 109.232H139.555V118.454H140.641V109.232Z" fill="#AC8A63"/>
<path d="M145.53 90.2439H144.444V99.466H145.53V90.2439Z" fill="#AC8A63"/>
<path d="M145.53 100.009H144.444V108.69H145.53V100.009Z" fill="#AC8A63"/>
<path d="M145.53 109.232H144.444V118.454H145.53V109.232Z" fill="#AC8A63"/>
<path d="M145.53 81.021H144.444V89.7016H145.53V81.021Z" fill="#AC8A63"/>
<path d="M147.159 90.2439H146.073V99.466H147.159V90.2439Z" fill="#AC8A63"/>
<path d="M147.159 100.009H146.073V108.69H147.159V100.009Z" fill="#AC8A63"/>
<path d="M147.159 109.232H146.073V118.454H147.159V109.232Z" fill="#AC8A63"/>
<path d="M148.789 100.009H147.703V108.69H148.789V100.009Z" fill="#AC8A63"/>
<path d="M148.789 109.232H147.703V118.454H148.789V109.232Z" fill="#AC8A63"/>
<path d="M150.418 109.232H149.331V118.454H150.418V109.232Z" fill="#AC8A63"/>
<path d="M149.627 121.13H148.456V173.37H149.627V121.13Z" fill="#AC8A63"/>
<path d="M151.267 121.13H150.096V173.37H151.267V121.13Z" fill="#AC8A63"/>
<path d="M153.354 137.987H152.267V175.42H153.354V137.987Z" fill="#AC8A63"/>
<path d="M137.61 137.987H136.523V175.42H137.61V137.987Z" fill="#AC8A63"/>
<path d="M154.983 149.379H153.896V175.42H154.983V149.379Z" fill="#AC8A63"/>
<path d="M135.981 149.379H134.894V175.42H135.981V149.379Z" fill="#AC8A63"/>
</mask>
<g mask="url(#mask3)">
<rect x="119.349" y="55.9991" width="48.4052" height="136.449" fill="url(#paint3_linear)"/>
</g>
<mask id="mask4" mask-type="alpha" maskUnits="userSpaceOnUse" x="56" y="52" width="24" height="109">
<path d="M66.0203 98.3237H64.6738V158.376H66.0203V98.3237Z" fill="#AC8A63"/>
<path d="M64.1346 98.3237H62.7881V158.376H64.1346V98.3237Z" fill="#AC8A63"/>
<path d="M75.4446 96.7079H60.9028V97.785H75.4446V96.7079Z" fill="#AC8A63"/>
<path d="M75.4446 158.914H60.9028V160.799H75.4446V158.914Z" fill="#AC8A63"/>
<path d="M62.2493 98.3237H60.9028V158.376H62.2493V98.3237Z" fill="#AC8A63"/>
<path d="M67.9056 98.3237H66.5591V158.376H67.9056V98.3237Z" fill="#AC8A63"/>
<path d="M69.7898 98.3237H68.4434V158.376H69.7898V98.3237Z" fill="#AC8A63"/>
<path d="M71.6756 98.3237H70.3291V158.376H71.6756V98.3237Z" fill="#AC8A63"/>
<path d="M66.9747 62.8182H65.7256V73.4195H66.9747V62.8182Z" fill="#AC8A63"/>
<path d="M66.9747 74.0439H65.7256V84.0227H66.9747V74.0439Z" fill="#AC8A63"/>
<path d="M66.9747 84.6453H65.7256V95.2466H66.9747V84.6453Z" fill="#AC8A63"/>
<path d="M65.1021 74.0439H63.853V84.0227H65.1021V74.0439Z" fill="#AC8A63"/>
<path d="M65.1021 84.6453H63.853V95.2466H65.1021V84.6453Z" fill="#AC8A63"/>
<path d="M63.2296 84.6453H61.9805V95.2466H63.2296V84.6453Z" fill="#AC8A63"/>
<path d="M68.8507 62.8182H67.6016V73.4195H68.8507V62.8182Z" fill="#AC8A63"/>
<path d="M68.8507 74.0439H67.6016V84.0227H68.8507V74.0439Z" fill="#AC8A63"/>
<path d="M68.8507 84.6453H67.6016V95.2466H68.8507V84.6453Z" fill="#AC8A63"/>
<path d="M68.8507 52.216H67.6016V62.1947H68.8507V52.216Z" fill="#AC8A63"/>
<path d="M70.7232 62.8182H69.4741V73.4195H70.7232V62.8182Z" fill="#AC8A63"/>
<path d="M70.7232 74.0439H69.4741V84.0227H70.7232V74.0439Z" fill="#AC8A63"/>
<path d="M70.7232 84.6453H69.4741V95.2466H70.7232V84.6453Z" fill="#AC8A63"/>
<path d="M72.5958 74.0439H71.3467V84.0227H72.5958V74.0439Z" fill="#AC8A63"/>
<path d="M72.5958 84.6453H71.3467V95.2466H72.5958V84.6453Z" fill="#AC8A63"/>
<path d="M74.4683 84.6453H73.2192V95.2466H74.4683V84.6453Z" fill="#AC8A63"/>
<path d="M73.5598 98.3237H72.2134V158.376H73.5598V98.3237Z" fill="#AC8A63"/>
<path d="M75.4446 98.3237H74.0981V158.376H75.4446V98.3237Z" fill="#AC8A63"/>
<path d="M77.8433 117.7H76.5942V160.732H77.8433V117.7Z" fill="#AC8A63"/>
<path d="M59.7452 117.7H58.4961V160.732H59.7452V117.7Z" fill="#AC8A63"/>
<path d="M79.7159 130.797H78.4668V160.732H79.7159V130.797Z" fill="#AC8A63"/>
<path d="M57.8731 130.797H56.624V160.732H57.8731V130.797Z" fill="#AC8A63"/>
</mask>
<g mask="url(#mask4)">
<rect x="37.23" y="23.4521" width="55.644" height="156.855" fill="url(#paint4_linear)"/>
</g>
</g>
<defs>
<linearGradient id="paint0_linear" x1="100.483" y1="308.316" x2="243.833" y2="162.725" gradientUnits="userSpaceOnUse">
<stop stop-color="#D39A47" stop-opacity="0"/>
<stop offset="1" stop-color="#F3E376"/>
</linearGradient>
<linearGradient id="paint1_linear" x1="211.966" y1="227.122" x2="284.884" y2="66.8373" gradientUnits="userSpaceOnUse">
<stop stop-color="#D39A47" stop-opacity="0"/>
<stop offset="1" stop-color="#F3E376"/>
</linearGradient>
<linearGradient id="paint2_linear" x1="67.8939" y1="214.133" x2="116.658" y2="116.982" gradientUnits="userSpaceOnUse">
<stop stop-color="#D39A47" stop-opacity="0"/>
<stop offset="1" stop-color="#DDB055"/>
</linearGradient>
<linearGradient id="paint3_linear" x1="167.754" y1="186.31" x2="216.518" y2="89.1583" gradientUnits="userSpaceOnUse">
<stop stop-color="#D39A47" stop-opacity="0"/>
<stop offset="1" stop-color="#DDB055"/>
</linearGradient>
<linearGradient id="paint4_linear" x1="92.874" y1="173.25" x2="148.93" y2="61.5702" gradientUnits="userSpaceOnUse">
<stop stop-color="#D39A47" stop-opacity="0"/>
<stop offset="1" stop-color="#DDB055"/>
</linearGradient>
<clipPath id="clip0">
<rect width="212" height="231" fill="white"/>
</clipPath>
</defs>
</svg>
