<svg width="29" height="69" viewBox="0 0 29 69" fill="none" xmlns="http://www.w3.org/2000/svg">
<g clip-path="url(#clip0)">
<mask id="mask0" mask-type="alpha" maskUnits="userSpaceOnUse" x="0" y="-1" width="30" height="71">
<path d="M13.9857 6.62524H13.1895V13.383H13.9857V6.62524Z" fill="#AC8A63"/>
<path d="M13.9857 13.7812H13.1895V20.1422H13.9857V13.7812Z" fill="#AC8A63"/>
<path d="M13.9857 20.5389H13.1895V27.2967H13.9857V20.5389Z" fill="#AC8A63"/>
<path d="M13.9857 29.2854H13.1895V46.7777H13.9857V29.2854Z" fill="#AC8A63"/>
<path d="M13.9857 48.765H13.1895V67.4497H13.9857V48.765Z" fill="#AC8A63"/>
<path d="M12.7923 13.7812H11.9961V20.1422H12.7923V13.7812Z" fill="#AC8A63"/>
<path d="M12.7923 20.5389H11.9961V27.2967H12.7923V20.5389Z" fill="#AC8A63"/>
<path d="M12.7923 29.2854H11.9961V46.7777H12.7923V29.2854Z" fill="#AC8A63"/>
<path d="M12.7923 48.765H11.9961V67.4497H12.7923V48.765Z" fill="#AC8A63"/>
<path d="M11.5985 20.5389H10.8022V27.2967H11.5985V20.5389Z" fill="#AC8A63"/>
<path d="M19.958 27.6954H9.6084V28.8879H19.958V27.6954Z" fill="#AC8A63"/>
<path d="M19.958 47.1752H9.6084V48.3676H19.958V47.1752Z" fill="#AC8A63"/>
<path d="M19.958 67.8472H9.6084V69.0396H19.958V67.8472Z" fill="#AC8A63"/>
<path d="M11.5985 29.2854H10.8022V46.7777H11.5985V29.2854Z" fill="#AC8A63"/>
<path d="M11.5985 48.765H10.8022V67.4497H11.5985V48.765Z" fill="#AC8A63"/>
<path d="M15.1815 6.62524H14.3853V13.383H15.1815V6.62524Z" fill="#AC8A63"/>
<path d="M15.1815 13.7812H14.3853V20.1422H15.1815V13.7812Z" fill="#AC8A63"/>
<path d="M15.1815 20.5389H14.3853V27.2967H15.1815V20.5389Z" fill="#AC8A63"/>
<path d="M15.1815 29.2854H14.3853V46.7777H15.1815V29.2854Z" fill="#AC8A63"/>
<path d="M15.1815 48.765H14.3853V67.4497H15.1815V48.765Z" fill="#AC8A63"/>
<path d="M15.1815 -0.133057H14.3853V6.22788H15.1815V-0.133057Z" fill="#AC8A63"/>
<path d="M16.3748 6.62524H15.5786V13.383H16.3748V6.62524Z" fill="#AC8A63"/>
<path d="M16.3748 13.7812H15.5786V20.1422H16.3748V13.7812Z" fill="#AC8A63"/>
<path d="M16.3748 20.5389H15.5786V27.2967H16.3748V20.5389Z" fill="#AC8A63"/>
<path d="M16.3748 29.2854H15.5786V46.7777H16.3748V29.2854Z" fill="#AC8A63"/>
<path d="M16.3748 48.765H15.5786V67.4497H16.3748V48.765Z" fill="#AC8A63"/>
<path d="M17.5687 13.7812H16.7725V20.1422H17.5687V13.7812Z" fill="#AC8A63"/>
<path d="M17.5687 20.5389H16.7725V27.2967H17.5687V20.5389Z" fill="#AC8A63"/>
<path d="M17.5687 29.2854H16.7725V46.7777H17.5687V29.2854Z" fill="#AC8A63"/>
<path d="M17.6112 48.765H16.8149V67.4497H17.6112V48.765Z" fill="#AC8A63"/>
<path d="M18.7625 20.5389H17.9663V27.2967H18.7625V20.5389Z" fill="#AC8A63"/>
<path d="M18.7625 29.2854H17.9663V46.7777H18.7625V29.2854Z" fill="#AC8A63"/>
<path d="M18.7625 48.765H17.9663V67.4497H18.7625V48.765Z" fill="#AC8A63"/>
<path d="M19.9578 29.2854H19.1616V46.7777H19.9578V29.2854Z" fill="#AC8A63"/>
<path d="M19.9578 48.765H19.1616V67.4497H19.9578V48.765Z" fill="#AC8A63"/>
<path d="M21.5496 41.6097H20.7534V69.0402H21.5496V41.6097Z" fill="#AC8A63"/>
<path d="M8.81185 41.6097H8.01562V69.0402H8.81185V41.6097Z" fill="#AC8A63"/>
<path d="M22.7435 49.9581H21.9473V69.0403H22.7435V49.9581Z" fill="#AC8A63"/>
<path d="M7.61799 49.9581H6.82178V69.0403H7.61799V49.9581Z" fill="#AC8A63"/>
<path d="M25.5291 63.0769H23.1411V69.0397H25.5291V63.0769Z" fill="#AC8A63"/>
<path d="M6.42417 63.0769H4.03613V69.0397H6.42417V63.0769Z" fill="#AC8A63"/>
<path d="M29.1136 66.6548H25.9287V69.0403H29.1136V66.6548Z" fill="#AC8A63"/>
<path d="M3.63655 66.6548H0.45166V69.0403H3.63655V66.6548Z" fill="#AC8A63"/>
<path d="M10.4046 27.6954H9.6084V69.0402H10.4046V27.6954Z" fill="#AC8A63"/>
</mask>
<g mask="url(#mask0)">
<rect x="-49" y="-8" width="127" height="100" fill="url(#paint0_linear)"/>
</g>
</g>
<defs>
<linearGradient id="paint0_linear" x1="-118.519" y1="170.233" x2="51.4813" y2="225.384" gradientUnits="userSpaceOnUse">
<stop stop-color="#D39A47"/>
<stop offset="1" stop-color="#F3E376"/>
</linearGradient>
<clipPath id="clip0">
<rect width="29" height="69" fill="white"/>
</clipPath>
</defs>
</svg>
